<?xml version="1.0" encoding="UTF-8" standalone="no"?>
<!-- Created with Inkscape (http://www.inkscape.org/) -->

<svg
   width="81.020226mm"
   height="15.697447mm"
   viewBox="0 0 81.020226 15.697447"
   version="1.1"
   id="svg1"
   xmlns="http://www.w3.org/2000/svg"
   xmlns:svg="http://www.w3.org/2000/svg">
  <defs
     id="defs1" />
  <g
     id="layer1"
     transform="translate(-58.922264,-127.44136)">
    <g
       id="g2"
       transform="matrix(0.26458333,0,0,0.26458333,-32.792362,122.90438)"
       style="fill:#ed7645;fill-opacity:1">
      <path
         id="path11"
         d="m 404.7066,367.8012 c 1.8303,-0.28 3.5,-0.3415 4.7061,1.2671 0.8161,1.0877 0.7804,2.274 0.1516,3.4166 -0.6017,1.0962 -1.6752,1.1344 -2.7765,1.0953 -1.5653,-0.0575 -1.0919,-1.3702 -1.3294,-2.1846 -0.3342,-1.1464 -0.4987,-2.3423 -0.7518,-3.5944 z m 6.4032,-2.9265 c 3.7902,-2.5398 3.3126,-6.5676 4.3177,-10.004 0.2758,-0.9419 -0.2225,-1.1486 -1.0318,-1.0695 -0.3268,0.0317 -0.6596,-0.005 -0.9887,0.002 -1.8054,0.0383 -4.021,-0.5451 -5.3014,0.2951 -1.3152,0.8617 -0.8342,3.3009 -1.2118,5.0337 -0.1726,0.7901 -0.4884,1.5554 -0.801,2.3055 -0.3583,0.8611 -1.1331,1.2605 -1.9849,1.1962 -1.0026,-0.076 -0.826,-1.0537 -1.0085,-1.7246 -0.0423,-0.1551 -0.0142,-0.3291 -0.0423,-0.4901 -1.2237,-6.9752 -1.2237,-6.9752 -8.7641,-6.4843 0.7753,3.6802 1.5395,7.3168 2.3048,10.9528 0.8453,4.0093 1.7144,8.0147 2.5214,12.0322 0.1959,0.978 0.3969,1.6779 1.6464,1.6421 3.3718,-0.0966 6.7626,0.0936 10.1174,-0.1785 4.3322,-0.3515 6.7011,-2.3097 7.022,-5.2988 0.4031,-3.7608 -1.4848,-6.3916 -5.6398,-7.8517 -0.2752,-0.0967 -0.557,-0.1735 -1.1554,-0.3578"
         style="fill:#ed7645;fill-opacity:1;fill-rule:nonzero;stroke:none"
         transform="matrix(1.3333333,0,0,-1.3333333,0,529.13387)" />
      <path
         id="path13"
         d="m 353.4656,378.5437 c -0.8238,-5.9196 -0.8345,-6.1288 -6.3576,-5.8555 -2.8323,0.1391 -3.3964,-1.0778 -3.3097,-3.5442 2.0262,0 4.0768,-0.0218 6.1265,0.009 0.9683,0.015 1.1852,-0.1727 0.9678,-1.2685 -0.9281,-4.6678 -0.8655,-4.6939 -5.8057,-4.6763 -1.5483,0.005 -3.0943,0.301 -3.2785,-2.0631 -0.0899,-1.1602 0.1224,-1.442 1.2112,-1.417 2.2955,0.0498 4.5919,0.015 6.9066,0.015 -0.6284,-5.9431 -0.6284,-5.944 -6.1939,-5.9431 -3.0498,8e-4 -6.0999,0.0275 -9.1497,-0.006 -1.0381,-0.0119 -1.7048,-0.007 -1.3913,1.4318 1.6087,7.3868 3.1374,14.7914 4.6627,22.1947 0.1942,0.9428 0.7294,1.137 1.5738,1.1338 4.6089,-0.0218 9.2192,-0.011 14.0378,-0.011"
         style="fill:#ed7645;fill-opacity:1;fill-rule:nonzero;stroke:none"
         transform="matrix(1.3333333,0,0,-1.3333333,0,529.13387)" />
      <g
         id="g1532"
         style="fill:#ed7645;fill-opacity:1">
        <path
           id="path9"
           d="m 391.5683,360.8935 c -0.2083,-1.1401 -0.3467,-2.0863 -0.5576,-3.0155 -0.9175,-4.0521 -1.2619,-4.3155 -5.5329,-4.553 -2.3358,-0.1299 -4.627,0.0949 -6.7859,1.0071 -4.5079,1.9021 -6.6693,6.5625 -5.6905,12.1689 0.2083,1.1902 0.5241,2.3629 0.9326,4.1794 -2.9617,-1.8672 -4.9187,-4.011 -7.3245,-6.209 1.0545,-0.1568 1.6731,-0.2503 2.2765,-0.3402 0.0899,-0.8345 -12.5716,-9.5683 -14.2395,-9.7985 1.8538,2.7326 3.6485,5.3765 5.4456,8.0257 -1.1953,0.9783 -2.6832,0.519 -4.3109,1.6127 2.0319,1.6579 3.9492,3.2207 5.8663,4.7846 -0.1823,0.2469 -0.3651,0.4935 -0.5477,0.7401 -2.2181,0.375 -4.4367,0.7492 -6.9307,1.1704 3.5632,4.3778 6.9426,8.5003 10.2773,12.6581 0.4952,0.6177 1.0588,0.6679 1.7323,0.6653 3.2074,-0.01 6.4139,-0.004 10.1491,-0.004 -2.9123,-3.286 -5.5536,-6.2558 -8.1827,-9.2356 -1.7331,-1.9647 -1.6932,-1.8731 0.8127,-2.6992 1.4252,-0.4711 3.0625,-0.3883 4.2451,-1.6361 0.6534,-0.6885 0.9485,0.0799 1.171,0.6018 3.0291,7.1135 12.1876,9.0706 19.6353,7.5302 0.7699,-0.1601 1.3051,-0.4484 1.1617,-1.2486 -0.3033,-1.6946 -0.6784,-3.3778 -1.0968,-5.048 -0.2009,-0.8002 -0.7392,-0.6327 -1.347,-0.3435 -1.6103,0.767 -3.3494,0.7744 -5.0822,0.682 -4.5944,-0.2444 -8.0303,-5.1681 -6.6858,-9.5542 0.7591,-2.4763 3.6618,-3.8409 6.9483,-3.185 1.1789,0.2353 2.3207,0.6559 3.6609,1.0443"
           style="fill:#ed7645;fill-opacity:1;fill-rule:nonzero;stroke:none"
           transform="matrix(1.3333333,0,0,-1.3333333,0,529.13387)" />
        <g
           id="g1531"
           style="fill:#ed7645;fill-opacity:1">
          <g
             id="g1530"
             style="fill:#ed7645;fill-opacity:1">
            <path
               id="path8"
               d="m 319.0504,367.8094 c 1.2079,-0.2191 2.2465,-0.2715 3.2828,0.1234 1.6319,0.6244 2.2278,1.8771 2.0061,3.5024 -0.1859,1.3689 -0.9984,2.039 -2.4755,2.2014 -2.1756,0.2396 -1.7631,-1.4218 -2.084,-2.5322 -0.2943,-1.0179 -0.4643,-2.0704 -0.7294,-3.295 z m 6.3632,-2.9939 c 3.2021,-1.8822 3.3701,-4.8073 3.9028,-7.5112 0.9785,-4.9573 0.9303,-4.9703 5.9675,-4.9703 33.6359,-0.002 67.2721,-0.002 100.908,-0.003 h 3.1632 c 0.003,-0.3248 0.006,-0.6499 0.008,-0.9742 -5.4771,0 -10.961,0.1709 -16.4305,-0.0301 -19.9976,-0.7375 -39.9886,-1.6628 -59.9862,-2.3913 -12.5206,-0.4552 -25.0489,-0.7285 -37.5812,-0.7186 -1.5854,0.002 -2.3524,0.3269 -2.5548,2.0716 -0.3416,2.9347 -0.9502,5.8405 -1.5185,8.7446 -0.1712,0.8711 -0.4802,1.7495 -0.9071,2.5248 -0.4017,0.7311 -1.1061,1.2946 -2.0396,1.0687 -0.8342,-0.201 -0.661,-1.0313 -0.8036,-1.6365 -0.1692,-0.7211 -0.2826,-1.4553 -0.4408,-2.1795 -1.233,-5.6316 -1.4082,-5.6943 -7.2586,-5.0406 -1.8037,0.2018 -0.8935,1.3252 -0.7728,1.9355 0.9879,5.0012 2.0849,9.9802 3.1459,14.9664 0.4618,2.1713 0.9468,4.3395 1.3646,6.5199 0.159,0.8346 0.449,1.3828 1.4012,1.3519 3.6207,-0.1174 7.2624,0.3192 10.8635,-0.2325 4.1017,-0.6284 6.1704,-2.4071 6.4672,-5.318 0.3493,-3.4325 -1.3725,-6.0582 -5.0252,-7.6218 -0.4377,-0.1868 -0.9162,-0.2761 -1.8732,-0.5559"
               style="fill:#ed7645;fill-opacity:1;fill-rule:nonzero;stroke:none"
               transform="matrix(1.3333333,0,0,-1.3333333,0,529.13387)" />
            <path
               id="path10"
               d="m 299.6271,367.6689 c -0.106,2.2169 -0.4453,4.166 -2.7739,4.85 -2.0183,0.5936 -3.9986,-0.5383 -5.1991,-2.7932 -1.0768,-2.022 -1.3529,-4.195 -1.1576,-6.4347 0.1267,-1.4539 0.6542,-2.7476 2.1628,-3.291 1.5922,-0.576 3.0351,-0.2707 4.3177,0.8821 2.0824,1.872 2.4007,4.3835 2.6501,6.7868 z m -6.2058,-14.3612 c -7.2386,-0.0301 -11.7961,5.1712 -10.8468,12.378 1.1869,9.0179 6.9531,13.9686 15.484,13.2917 4.8568,-0.3852 8.1992,-3.3611 9.1805,-8.1746 1.8873,-9.2565 -4.5913,-17.4594 -13.8177,-17.4951"
               style="fill:#ed7645;fill-opacity:1;fill-rule:nonzero;stroke:none"
               transform="matrix(1.3333333,0,0,-1.3333333,0,529.13387)" />
            <path
               id="path12"
               d="m 420.2646,362.4043 c 0.43,5.0899 1.9613,9.9786 2.8258,14.9897 0.1525,0.8852 0.6392,1.1996 1.5412,1.1653 1.6444,-0.0615 3.2959,-0.0726 4.9397,10e-4 1.2886,0.0573 1.2194,-0.4912 0.9975,-1.493 -0.9927,-4.4861 -1.9347,-8.9847 -2.8106,-13.4952 -0.3276,-1.6852 0.1151,-3.2593 1.9639,-3.7392 1.7436,-0.4535 3.2941,0.1242 4.1068,1.8839 0.4442,0.9601 0.8192,1.9755 1.0559,3.0039 0.7736,3.3602 1.4874,6.7334 2.1901,10.1092 0.7733,3.7194 0.7568,3.7228 4.5808,3.7134 3.6578,-0.007 3.6969,-0.0164 2.9383,-3.5082 -0.9926,-4.5703 -1.8337,-9.1904 -3.1382,-13.6734 -2.109,-7.2536 -10.802,-10.4752 -17.4444,-6.7094 -3.0549,1.7323 -3.8551,4.4995 -3.7468,7.7519"
               style="fill:#ed7645;fill-opacity:1;fill-rule:nonzero;stroke:none"
               transform="matrix(1.3333333,0,0,-1.3333333,0,529.13387)" />
            <path
               id="path14"
               d="m 445.8138,360.9303 c 2.2816,-0.9963 4.2795,-2.3947 6.8068,-2.194 1.1435,0.091 2.1807,0.2084 2.5674,1.4454 0.4311,1.3805 -0.4468,2.1671 -1.4996,2.77 -0.926,0.5309 -1.9247,0.9352 -2.8417,1.4786 -2.4239,1.4397 -3.9509,3.4157 -3.7641,6.4159 0.1874,3.0172 1.4476,5.383 4.1729,6.7924 4.1799,2.1623 8.4628,1.5072 12.7488,0.3268 0.8376,-0.2316 0.9703,-0.7928 0.8087,-1.5162 -0.3044,-1.3578 -0.2236,-3.0833 -1.0429,-3.9711 -0.9836,-1.0644 -2.1914,0.7404 -3.4982,0.8104 -1.8374,0.0992 -4.1094,1.2277 -5.0063,-1.0562 -0.9362,-2.3847 1.6702,-2.7898 3.1006,-3.6317 3.6518,-2.1498 5.3339,-4.8362 4.8756,-8.1088 -0.5086,-3.6252 -2.8874,-5.8581 -7.1337,-6.8099 -3.3191,-0.7453 -6.5316,-0.3045 -9.7248,0.6667 -1.3813,0.4192 -2.0313,1.046 -1.3995,2.6399 0.4691,1.1837 0.5474,2.5231 0.83,3.9418"
               style="fill:#ed7645;fill-opacity:1;fill-rule:nonzero;stroke:none"
               transform="matrix(1.3333333,0,0,-1.3333333,0,529.13387)" />
            <path
               id="path15"
               d="m 278.7576,360.87 c -0.187,-1.0662 -0.2945,-1.8604 -0.4677,-2.6397 -0.9952,-4.4804 -1.1401,-4.5989 -5.7492,-4.913 -5.8813,-0.4011 -10.5423,2.2079 -11.9563,6.6923 -1.8212,5.7793 0.5976,13.1219 5.4516,16.2193 4.7104,3.005 10.0024,3.7352 15.1606,2.1115 2.819,-0.8872 -0.061,-3.5671 0.1363,-5.4467 0.1468,-1.3952 -0.6616,-1.1866 -1.7444,-0.8657 -5.4553,1.612 -9.5789,0.008 -11.0962,-4.2546 -0.766,-2.1523 -1.0426,-4.3636 0.5621,-6.3051 1.6279,-1.9703 3.8857,-1.921 6.1231,-1.6001 1.112,0.1599 2.1846,0.6009 3.5801,1.0018"
               style="fill:#ed7645;fill-opacity:1;fill-rule:nonzero;stroke:none"
               transform="matrix(1.3333333,0,0,-1.3333333,0,529.13387)" />
            <path
               id="path16"
               d="m 470.0608,353.8052 c 1.1954,5.6347 2.2966,11.0871 3.5317,16.5084 0.4028,1.7623 0.2168,2.6923 -1.8496,2.2941 -0.08,-0.0162 -0.165,-0.002 -0.2475,-0.002 -4.523,0.0119 -4.4663,10e-4 -3.5643,4.4061 0.2568,1.2555 0.796,1.5639 1.9789,1.5548 6.0948,-0.0473 12.1895,-0.0793 18.2837,0.0176 1.5486,0.0241 1.5588,-0.6193 1.3578,-1.7589 -0.7426,-4.221 -0.7384,-4.3855 -4.9646,-4.1559 -2.4415,0.1316 -3.3899,-0.6301 -3.7984,-3.0432 -0.8076,-4.7739 -2.0373,-9.4751 -2.9222,-14.2379 -0.222,-1.1996 -0.4811,-1.673 -1.7448,-1.6089 -1.9621,0.0992 -3.9327,0.0258 -6.0607,0.0258"
               style="fill:#ed7645;fill-opacity:1;fill-rule:nonzero;stroke:none"
               transform="matrix(1.3333333,0,0,-1.3333333,0,529.13387)" />
            <path
               id="path17"
               d="M 0.63178125,-6.4804156 H 1.7567813 l 2.0625,4.1953125 2.0390625,-4.1953125 h 1.125 V 5.3125e-5 H 5.8935 V -4.6991656 L 4.1474063,-1.1132281 H 3.4794375 L 1.721625,-4.6991656 V 5.3125e-5 H 0.63178125 Z m 11.78613275,0 h 1.230469 L 16.097602,5.3125e-5 h -1.125 L 14.32807,-1.6757281 H 11.726508 L 11.081977,5.3125e-5 H 9.9452578 Z m 1.734375,3.9609375 -1.125,-2.9648438 -1.136719,2.9648438 z m 5.15918,-3.9609375 h 1.101562 v 2.9765625 l 2.753907,-2.9765625 h 1.265625 L 22.053656,-3.8671344 24.538031,5.3125e-5 H 23.366156 L 21.36225,-3.1757281 l -0.949219,1.03125 V 5.3125e-5 h -1.101562 z m 8.425781,0 h 4.523438 v 0.8554687 h -3.421875 v 1.9570313 h 3.046875 v 0.84375 h -3.046875 v 1.98046872 h 3.421875 V 5.3125e-5 H 27.73725 Z m 12,0.8554687 h -2.074219 v -0.8554687 h 5.226563 v 0.8554687 h -2.0625 V 5.3125e-5 H 39.73725 Z m 6.161133,-0.8554687 h 1.101562 v 2.8125 h 3.117188 v -2.8125 h 1.101562 V 5.3125e-5 H 50.117133 V -2.8241656 H 46.999945 V 5.3125e-5 h -1.101562 z m 8.71582,0 h 4.523438 v 0.8554687 h -3.421875 v 1.9570313 h 3.046875 v 0.84375 h -3.046875 v 1.98046872 h 3.421875 V 5.3125e-5 h -4.523438 z m 10.3125,0 h 3.140625 c 0.632813,0 1.104492,0.149414 1.417969,0.4453125 0.319336,0.2988281 0.480469,0.7265625 0.480469,1.2890625 0,0.336914 -0.07031,0.6269531 -0.210938,0.8671875 -0.140625,0.234375 -0.333984,0.4189453 -0.574219,0.5507812 0.333985,0.09375 0.588868,0.2578125 0.761719,0.4921875 0.178711,0.2285156 0.269531,0.5478516 0.269531,0.9609375 0,0.6269531 -0.172851,1.09570315 -0.515625,1.40625002 C 69.35932,-0.15522031 68.864203,5.3125e-5 68.207953,5.3125e-5 h -3.28125 z m 2.988281,2.765625 c 0.685547,0 1.03125,-0.3164063 1.03125,-0.9492188 0,-0.3427734 -0.08789,-0.5917969 -0.257812,-0.75 -0.164063,-0.1640625 -0.462891,-0.2460937 -0.890625,-0.2460937 h -1.769531 v 1.9453125 z m 0.05859,2.90624997 c 0.398438,0 0.685547,-0.0820313 0.867188,-0.24609377 0.178711,-0.1699219 0.269531,-0.4570312 0.269531,-0.8554687 0,-0.3427735 -0.09375,-0.5917969 -0.28125,-0.75 -0.1875,-0.1640625 -0.509766,-0.2460938 -0.960938,-0.2460938 h -1.839843 v 2.09765627 z M 75.04291,-6.4804156 h 1.230469 L 78.722602,5.3125e-5 h -1.125 L 76.95307,-1.6757281 H 74.351508 L 73.706977,5.3125e-5 h -1.136719 z m 1.734375,3.9609375 -1.125,-2.9648438 -1.136719,2.9648438 z m 6.673828,2.62499997 c -0.84375,0 -1.520508,-0.10839843 -2.027344,-0.328125 V -1.1835406 c 0.624024,0.24316404 1.265625,0.36328122 1.921875,0.36328122 0.544922,0 0.94043,-0.0615234 1.183594,-0.18750002 0.240235,-0.1318359 0.363281,-0.375 0.363281,-0.7265625 0,-0.2167969 -0.05273,-0.3925781 -0.152343,-0.5273437 -0.102539,-0.131836 -0.269532,-0.2460938 -0.503907,-0.3398438 -0.234375,-0.09375 -0.591796,-0.1992187 -1.066406,-0.3164062 -0.697265,-0.178711 -1.183594,-0.4101563 -1.464844,-0.6914063 -0.28125,-0.28125 -0.421875,-0.6621094 -0.421875,-1.1484375 0,-0.5771484 0.210938,-1.0253906 0.632813,-1.3476562 0.421875,-0.319336 1.037109,-0.4804688 1.851562,-0.4804688 0.357422,0 0.703125,0.029297 1.03125,0.082031 0.333985,0.046875 0.603516,0.1113281 0.808594,0.1875 v 0.9609375 c -0.509765,-0.1933594 -1.072265,-0.2929688 -1.6875,-0.2929688 -0.509765,0 -0.890625,0.067383 -1.148437,0.1992188 -0.257813,0.1347656 -0.386719,0.3632812 -0.386719,0.6914062 0,0.1962891 0.04687,0.3515625 0.140625,0.46875 0.09375,0.1171875 0.249023,0.2226563 0.46875,0.3164063 0.216797,0.087891 0.544922,0.1845703 0.984375,0.2929687 0.755859,0.1962891 1.283203,0.4511719 1.582031,0.7617188 0.295899,0.3046875 0.445313,0.7001953 0.445313,1.1835937 0,0.5800781 -0.219727,1.03125002 -0.65625,1.35937502 -0.430664,0.32226563 -1.063477,0.48046875 -1.898438,0.48046905 z M 89.20209,-6.4804156 h 4.523437 v 0.8554687 h -3.421875 v 1.9570313 h 3.046875 v 0.84375 h -3.046875 v 1.98046872 h 3.421875 V 5.3125e-5 H 89.20209 Z m 12.28125,6.58593747 c -0.84375,0 -1.520508,-0.10839843 -2.027344,-0.328125 V -1.1835406 c 0.624024,0.24316404 1.265634,0.36328122 1.921884,0.36328122 0.54492,0 0.94042,-0.0615234 1.18359,-0.18750002 0.24023,-0.1318359 0.36328,-0.375 0.36328,-0.7265625 0,-0.2167969 -0.0527,-0.3925781 -0.15234,-0.5273437 -0.10254,-0.131836 -0.26953,-0.2460938 -0.50391,-0.3398438 -0.23437,-0.09375 -0.5918,-0.1992187 -1.06641,-0.3164062 -0.69726,-0.178711 -1.18359,-0.4101563 -1.464844,-0.6914063 -0.28125,-0.28125 -0.421875,-0.6621094 -0.421875,-1.1484375 0,-0.5771484 0.210938,-1.0253906 0.632813,-1.3476562 0.421876,-0.319336 1.037116,-0.4804688 1.851566,-0.4804688 0.35742,0 0.70313,0.029297 1.03125,0.082031 0.33398,0.046875 0.60352,0.1113281 0.80859,0.1875 v 0.9609375 c -0.50976,-0.1933594 -1.07226,-0.2929688 -1.6875,-0.2929688 -0.50976,0 -0.89062,0.067383 -1.14843,0.1992188 -0.25782,0.1347656 -0.38672,0.3632812 -0.38672,0.6914062 0,0.1962891 0.0469,0.3515625 0.14062,0.46875 0.0937,0.1171875 0.24903,0.2226563 0.46875,0.3164063 0.2168,0.087891 0.54492,0.1845703 0.98438,0.2929687 0.75586,0.1962891 1.2832,0.4511719 1.58203,0.7617188 0.2959,0.3046875 0.44531,0.7001953 0.44531,1.1835937 0,0.5800781 -0.21973,1.03125002 -0.65625,1.35937502 -0.43066,0.32226563 -1.06348,0.48046875 -1.89844,0.48046905 z m 7.18653,-5.73046877 h -2.07422 v -0.8554687 h 5.22656 v 0.8554687 h -2.0625 V 5.3125e-5 h -1.08984 z m 6.16406,-0.8554687 h 2.97656 c 0.70899,0 1.2334,0.1845703 1.57031,0.5507812 0.34278,0.3603516 0.51563,0.8671875 0.51563,1.5234375 0,0.4628906 -0.11719,0.8525391 -0.35156,1.171875 -0.22852,0.3222656 -0.55078,0.5449219 -0.97266,0.6679688 0.1084,0.079102 0.19922,0.1699218 0.26953,0.2695312 0.0703,0.09375 0.14063,0.2314453 0.21094,0.4101563 l 0.82031,1.886718725 h -1.13672 L 117.95112,-1.8163531 c -0.0879,-0.178711 -0.18457,-0.3046875 -0.29297,-0.375 -0.10254,-0.070312 -0.26953,-0.1054688 -0.50391,-0.1054688 h -1.21875 V 5.3125e-5 h -1.10156 z m 2.68359,3.3046875 c 0.8584,0 1.28907,-0.4101563 1.28907,-1.2304688 0,-0.8115234 -0.39551,-1.21875 -1.1836,-1.21875 h -1.6875 v 2.4492188 z m 8.3086,3.28124997 c -1.03125,0 -1.80176,-0.26953125 -2.3086,-0.80859375 -0.50976,-0.54492192 -0.76172,-1.38574222 -0.76172,-2.51953122 0,-1.163086 0.24903,-2.015625 0.75,-2.5546875 0.50684,-0.5390625 1.28028,-0.8085938 2.32032,-0.8085938 1.03711,0 1.80761,0.2695313 2.30859,0.8085938 0.50684,0.5390625 0.76172,1.3916015 0.76172,2.5546875 0,1.133789 -0.25488,1.9746093 -0.76172,2.51953122 -0.50976,0.5390625 -1.27734,0.80859375 -2.30859,0.80859375 z m 0,-0.92578125 c 0.68554,0 1.18652,-0.18750002 1.5,-0.56250002 0.31054,-0.3808594 0.46875,-0.9960937 0.46875,-1.8398437 0,-0.8730469 -0.15821,-1.4941407 -0.46875,-1.8632813 -0.31348,-0.375 -0.81446,-0.5625 -1.5,-0.5625 -0.68848,0 -1.18946,0.1875 -1.5,0.5625 -0.31348,0.3691406 -0.46875,0.9902344 -0.46875,1.8632813 0,0.8378906 0.15527,1.4472656 0.46875,1.828125 0.31933,0.383789 0.82031,0.57421872 1.5,0.57421872 z m 6.27832,-5.66015622 h 0.97265 l 3.375,4.7695312 v -4.7695312 h 1.08985 V 5.3125e-5 H 136.581 L 133.206,-4.7577594 V 5.3125e-5 h -1.10156 z m 11.87109,6.58593747 c -1.04883,0 -1.84863,-0.28417968 -2.40234,-0.85546875 -0.54785,-0.56835942 -0.82031,-1.35351562 -0.82031,-2.35546872 0,-1.0927735 0.26953,-1.9453125 0.80859,-2.5546875 0.54492,-0.6152344 1.35937,-0.9257813 2.4375,-0.9257813 0.71777,0 1.35937,0.099609 1.92187,0.2929688 v 0.9492187 c -0.55664,-0.2021484 -1.16601,-0.3046875 -1.82812,-0.3046875 -0.79688,0 -1.37109,0.2109375 -1.72266,0.6328125 -0.3457,0.4160156 -0.51562,1.0517578 -0.51562,1.9101563 0,1.5234375 0.71484,2.28515622 2.14453,2.28515622 0.57715,0 1.0459,-0.0703125 1.40625,-0.21093752 v -1.8046875 h -1.62891 v -0.7148437 h 2.56641 v 3.11718747 c -0.24317,0.15820313 -0.5625,0.28710938 -0.96094,0.38671875 -0.39258,0.09960938 -0.86133,0.15234375 -1.40625,0.15234375 z m 5.56055,-6.58593747 h 4.52344 v 0.8554687 h -3.42188 v 1.9570313 h 3.04688 v 0.84375 h -3.04688 v 1.98046872 h 3.42188 V 5.3125e-5 h -4.52344 z m 7.66992,0 h 2.97656 c 0.70899,0 1.2334,0.1845703 1.57032,0.5507812 0.34277,0.3603516 0.51562,0.8671875 0.51562,1.5234375 0,0.4628906 -0.11719,0.8525391 -0.35156,1.171875 -0.22852,0.3222656 -0.55078,0.5449219 -0.97266,0.6679688 0.1084,0.079102 0.19922,0.1699218 0.26953,0.2695312 0.0703,0.09375 0.14063,0.2314453 0.21094,0.4101563 l 0.82031,1.886718725 h -1.13672 L 160.32319,-1.8163531 c -0.0879,-0.178711 -0.18457,-0.3046875 -0.29297,-0.375 -0.10254,-0.070312 -0.26953,-0.1054688 -0.50391,-0.1054688 h -1.21875 V 5.3125e-5 H 157.206 Z m 2.68359,3.3046875 c 0.8584,0 1.28907,-0.4101563 1.28907,-1.2304688 0,-0.8115234 -0.39551,-1.21875 -1.1836,-1.21875 h -1.6875 v 2.4492188 z m 0,0"
               style="fill:#ed7645;fill-opacity:1;fill-rule:nonzero;stroke:none"
               aria-label="MAKE THE BASE STRONGER"
               transform="matrix(1.3333333,0,0,1.3333333,431.142,76.335867)" />
          </g>
        </g>
      </g>
    </g>
  </g>
</svg>
